<?xml version="1.0" encoding="utf-8"?>
<!-- Generator: Adobe Illustrator 25.0.1, SVG Export Plug-In . SVG Version: 6.00 Build 0)  -->
<svg version="1.1" id="Layer_1" xmlns="http://www.w3.org/2000/svg" xmlns:xlink="http://www.w3.org/1999/xlink" x="0px" y="0px"
	 viewBox="0 0 282.93 252.13" style="enable-background:new 0 0 282.93 252.13;" xml:space="preserve">
<style type="text/css">
	.st0{fill:url(#SVGID_1_);}
</style>
<linearGradient id="SVGID_1_" gradientUnits="userSpaceOnUse" x1="21.3983" y1="174.1413" x2="245.5689" y2="85.2274">
	<stop  offset="0" style="stop-color:#FFDE59"/>
	<stop  offset="1" style="stop-color:#F16814"/>
</linearGradient>
<path class="st0" d="M253.77,90.64c0.77-4.37-2.14-8.54-6.51-9.31c-7.31-1.02-10.83,5.89-8.84,10.98l-22.24,17.77
	c-1.51-0.04-3.02,0.42-4.2,1.4l-27.72-16.4c0.12-0.39,0.23-0.78,0.31-1.2c0.88-4.94-2.42-9.66-7.37-10.54
	c-2.92-0.4-5.31,0.31-7.07,1.66l-25.47-19.67c0.29-0.65,0.51-1.34,0.64-2.07c0.88-4.94-2.42-9.66-7.37-10.54
	c-10.16-1.4-13.85,10.66-7.49,15.88l-13.24,26.66c-3.29-0.45-6.01,0.27-8.09,1.67L73.81,81.13h0c0.1-0.6,0.17-1.21,0.17-1.83
	c0-5.91-4.79-10.7-10.7-10.7c-14.19,0.56-14.19,20.84,0,21.4c3.31,0,6.27-1.51,8.23-3.87l0,0l33.91,15.13l0.02,0.01
	c-1.65,3.5-1.5,7.83,0.75,11.12L85.83,129.8c-1.76-1.16-3.78-1.98-5.99-2.38c-7.16-1.31-14.05,2.5-17.13,8.57l-26.94-13.3
	c0-5.04-4.09-9.13-9.13-9.13c-12.11,0.47-12.11,17.8,0,18.27c3.66,0,6.8-2.15,8.26-5.25l0.87,0.6l25.48,13.25
	c-0.85,4.8,0.54,9.47,3.4,12.96l-13.2,22.41l-0.02,0.05c-2.76-0.49-5.85,0.89-6.63,4.6c-1.09,7.51,9.74,9.43,11.3,2
	c0.24-1.66-0.1-3.05-0.8-4.12l14.93-20.57l0.01-0.01c1.25,0.59,2.59,1.03,4.01,1.29c5.35,0.95,10.55-0.88,14.13-4.45v0.01
	l17.22,11.68h0.05c-1.53,5.14,0.75,11.41,7.89,12.97c4.8,0.85,9.4-1.82,11.17-6.15l37.96-11.29c1.87,3.44,5.26,6.24,10.39,7.36
	c4.2,0.74,8.29-0.37,11.45-2.75l15.65,15.29c-0.43,3.32,1.31,6.93,5.75,7.87c3.86,0.68,7.55-1.89,8.23-5.76
	c0.68-3.86-1.89-7.55-5.75-8.23c-2.09-0.3-3.83,0.15-5.16,1.03l-15.28-13.83c1.1-1.65,1.89-3.54,2.26-5.62
	c1.43-8.05-3.94-15.73-11.99-17.15c-0.2-0.03-0.39-0.03-0.59-0.05v-38.79c1.4-0.32,2.69-0.96,3.78-1.86l28.52,16.22
	c-0.02,0.2-0.04,0.39-0.05,0.6c0.11,3.46,2.32,5.43,4.83,5.93l23.08,33.35l0.07-0.09c-0.66,3.44,1.03,7.34,5.68,8.33
	c3.86,0.68,7.55-1.89,8.23-5.76c0.68-3.86-1.89-7.55-5.75-8.23c-1.55-0.22-2.91-0.03-4.05,0.45l-21.07-30.27
	c0.71-0.95,1.16-2.18,1.21-3.7c-0.03-0.87-0.19-1.64-0.46-2.32l20.34-17.54l-0.01-0.01c0.73,0.38,1.55,0.69,2.48,0.89
	C248.83,97.92,253,95.01,253.77,90.64z M140.69,69.67l26.38,19.57l0.03,0.04c-1.48,4.33,0.13,9.71,5.63,11.59v39.22
	c-1.9,0.34-3.59,1-5.06,1.93l-41.38-35.65c0.08-3.47-1.47-6.71-4.07-8.82l12.55-26.92C136.88,71,138.94,70.61,140.69,69.67z
	 M160.97,156.65l-35.8,10.21c-0.91-3.82-4-6.92-8.11-7.65c-3.81-0.52-6.8,0.65-8.83,2.65l-16.69-11.84
	c0.59-1.25,1.03-2.59,1.29-4.01c0.87-4.92-0.6-9.71-3.62-13.24l19.93-17.55v-0.01c1.18,0.76,2.58,1.36,4.23,1.72
	c4.65,0.82,9.13-1.41,11.4-5.26l39.63,33.2c-2.7,3.25-3.9,7.62-3.38,11.79L160.97,156.65z"/>
</svg>
