<?xml version="1.0" encoding="utf-8"?>
<!-- Generator: Adobe Illustrator 25.0.1, SVG Export Plug-In . SVG Version: 6.00 Build 0)  -->
<svg version="1.1" id="Layer_1" xmlns="http://www.w3.org/2000/svg" xmlns:xlink="http://www.w3.org/1999/xlink" x="0px" y="0px"
	 viewBox="0 0 532 393" style="enable-background:new 0 0 532 393;" xml:space="preserve">
<style type="text/css">
	.st0{fill:#EAFEFF;}
</style>
<path class="st0" d="M524.42,123.17c1.69-9.56-4.68-18.69-14.25-20.38c-16-2.23-23.7,12.89-19.35,24.03l-48.69,38.91
	c-3.3-0.1-6.62,0.93-9.18,3.07l-60.68-35.91c0.27-0.85,0.51-1.71,0.67-2.62c1.92-10.82-5.3-21.15-16.12-23.07
	c-6.4-0.88-11.61,0.69-15.48,3.63l-55.75-43.05c0.62-1.42,1.11-2.93,1.39-4.53c1.92-10.82-5.3-21.15-16.12-23.07
	c-22.23-3.06-30.32,23.34-16.39,34.77l-28.97,58.36c-7.19-0.98-13.15,0.59-17.72,3.66l-77.3-34.63h0c0.23-1.31,0.37-2.64,0.37-4.02
	c0-12.94-10.49-23.42-23.42-23.42c-31.06,1.23-31.07,45.61,0,46.85c7.25,0,13.73-3.29,18.02-8.47l0,0l74.23,33.12l0.05,0.03
	c-3.61,7.67-3.29,17.14,1.65,24.33l-44.59,38.13c-3.86-2.53-8.28-4.35-13.12-5.2c-15.68-2.86-30.75,5.47-37.5,18.76l-58.98-29.11
	c0-11.04-8.95-19.99-19.99-19.99c-26.5,1.02-26.51,38.96,0,39.99c8,0,14.88-4.71,18.08-11.5l1.91,1.32l55.77,29
	c-1.86,10.5,1.17,20.72,7.44,28.37L81.5,309.56l-0.04,0.11c-6.05-1.06-12.82,1.95-14.52,10.07c-2.39,16.43,21.33,20.64,24.73,4.38
	c0.53-3.64-0.22-6.67-1.75-9.03l32.69-45.03l0.02-0.03c2.74,1.28,5.66,2.26,8.78,2.82c11.72,2.08,23.1-1.94,30.93-9.75v0.03
	l37.69,25.56h0.12c-3.35,11.24,1.63,24.98,17.26,28.39c10.5,1.86,20.57-3.98,24.45-13.46l83.1-24.7
	c4.09,7.53,11.52,13.65,22.74,16.1c9.2,1.63,18.15-0.82,25.08-6.01l34.26,33.46c-0.95,7.28,2.86,15.17,12.59,17.24
	c8.46,1.5,16.53-4.14,18.02-12.6c1.5-8.46-4.14-16.53-12.6-18.02c-4.57-0.65-8.37,0.33-11.3,2.27l-33.45-30.27
	c2.41-3.61,4.14-7.76,4.95-12.31c3.12-17.62-8.63-34.43-26.24-37.55c-0.44-0.06-0.85-0.07-1.28-0.12v-84.91
	c3.06-0.69,5.88-2.1,8.27-4.06l62.44,35.51c-0.05,0.43-0.09,0.86-0.1,1.31c0.23,7.58,5.08,11.9,10.58,12.98l50.53,73l0.16-0.2
	c-1.44,7.54,2.26,16.06,12.44,18.23c8.46,1.5,16.53-4.14,18.02-12.6c1.5-8.46-4.14-16.53-12.6-18.02c-3.4-0.48-6.37-0.06-8.87,0.98
	l-46.13-66.27c1.54-2.08,2.54-4.77,2.64-8.1c-0.06-1.9-0.42-3.58-1-5.08l44.52-38.41l-0.01-0.03c1.59,0.84,3.39,1.51,5.43,1.95
	C513.6,139.11,522.73,132.73,524.42,123.17z M276.87,77.25l57.76,42.85l0.06,0.09c-3.23,9.48,0.29,21.26,12.32,25.38v85.86
	c-4.15,0.75-7.87,2.2-11.08,4.22l-90.58-78.05c0.19-7.61-3.23-14.69-8.91-19.3l27.47-58.93C268.53,80.18,273.05,79.32,276.87,77.25z
	 M321.28,267.67l-78.36,22.36c-2-8.35-8.76-15.15-17.75-16.74c-8.33-1.14-14.88,1.42-19.33,5.81l-36.54-25.92
	c1.28-2.74,2.26-5.66,2.82-8.78c1.91-10.77-1.31-21.27-7.91-28.98l43.62-38.41v-0.02c2.59,1.67,5.65,2.99,9.26,3.77
	c10.19,1.81,19.99-3.09,24.96-11.51l86.75,72.68c-5.92,7.11-8.55,16.68-7.4,25.81L321.28,267.67z"/>
</svg>
