<?xml version="1.0" encoding="utf-8"?>
<!-- Generator: Adobe Illustrator 25.0.1, SVG Export Plug-In . SVG Version: 6.00 Build 0)  -->
<svg version="1.1" id="Layer_1" xmlns="http://www.w3.org/2000/svg" xmlns:xlink="http://www.w3.org/1999/xlink" x="0px" y="0px"
	 viewBox="0 0 581 403" style="enable-background:new 0 0 581 403;" xml:space="preserve">
<style type="text/css">
	.st0{fill:url(#SVGID_1_);}
	.st1{fill:#fff;}
</style>
<g>
	<linearGradient id="SVGID_1_" gradientUnits="userSpaceOnUse" x1="150.2272" y1="187.3713" x2="393.9306" y2="90.71">
		<stop  offset="0" style="stop-color:#FFDE59"/>
		<stop  offset="1" style="stop-color:#F16814"/>
	</linearGradient>
	<path class="st0" d="M402.76,96.39c0.84-4.77-2.33-9.33-7.07-10.17c-7.94-1.11-11.77,6.43-9.61,11.99l-24.17,19.42
		c-1.64-0.05-3.29,0.46-4.56,1.53l-30.12-17.92c1.88-5.65-1.83-11.83-7.67-12.82c-3.18-0.44-5.77,0.34-7.69,1.81l-27.68-21.49
		c2.62-5.75-1.09-12.75-7.31-13.77c-11.04-1.53-15.05,11.65-8.14,17.35l-14.38,29.12c-3.57-0.49-6.53,0.29-8.8,1.83L207.18,86h0
		c1.31-7.04-4.32-13.77-11.45-13.69c-15.42,0.61-15.43,22.76,0,23.38c3.6,0,6.81-1.64,8.95-4.22l0,0l36.85,16.53l0.03,0.01
		c-1.79,3.83-1.63,8.55,0.82,12.14l-22.14,19.03c-8.46-5.87-20.87-2.21-25.13,6.76l-29.28-14.53c0-5.51-4.44-9.98-9.93-9.98
		c-13.16,0.51-13.16,19.44,0,19.96c3.97,0,7.39-2.35,8.98-5.74l0.95,0.66l27.69,14.47c-0.92,5.24,0.58,10.34,3.69,14.16
		l-14.34,24.48l-0.02,0.05c-3-0.53-6.36,0.97-7.21,5.02c-1.19,8.2,10.59,10.3,12.28,2.19c0.26-1.82-0.11-3.33-0.87-4.5l16.23-22.47
		l0.01-0.01c6.51,3.24,14.91,1.56,19.71-3.46v0.01L241.71,179h0.06c-1.66,5.61,0.81,12.47,8.57,14.17
		c5.21,0.93,10.21-1.99,12.14-6.72l41.25-12.33c2.03,3.76,5.72,6.81,11.29,8.04c4.57,0.81,9.01-0.41,12.45-3l17.01,16.7
		c-0.47,3.63,1.42,7.57,6.25,8.6c10.13,1.44,12.69-13.14,2.69-15.28c-2.27-0.32-4.16,0.16-5.61,1.13l-16.61-15.1
		c6.46-9.3,0.66-23.15-10.57-24.88c-0.22-0.03-0.42-0.04-0.64-0.06v-42.37c1.52-0.34,2.92-1.05,4.11-2.03l31,17.72
		c-0.02,0.21-0.04,0.43-0.05,0.65c0.12,3.78,2.52,5.94,5.25,6.48l25.08,36.43l0.08-0.1c-0.72,3.76,1.12,8.01,6.17,9.1
		c10.13,1.44,12.69-13.14,2.69-15.28c-1.69-0.24-3.16-0.03-4.4,0.49l-22.9-33.07c0.77-1.04,1.26-2.38,1.31-4.04
		c-0.03-0.95-0.21-1.79-0.5-2.53l22.1-19.17l-0.01-0.01c0.79,0.42,1.68,0.76,2.69,0.97C397.39,104.35,401.92,101.17,402.76,96.39z
		 M280.16,73.61l28.69,21.28l0.03,0.05c-1.61,4.71,0.14,10.56,6.12,12.61v42.64c-2.06,0.37-3.91,1.09-5.5,2.1l-44.99-38.77
		c0.09-3.78-1.6-7.3-4.43-9.59l13.65-29.27C276.02,75.07,278.26,74.64,280.16,73.61z M302.35,168.19l-38.92,11.11
		c-0.99-4.15-4.35-7.52-8.82-8.32c-4.14-0.57-7.39,0.71-9.6,2.88l-18.15-12.87c3.01-6.07,1.77-13.92-2.53-18.75L246,123.16v-0.01
		c1.29,0.83,2.81,1.48,4.6,1.87c5.06,0.9,9.93-1.54,12.39-5.72l43.09,36.1c-2.94,3.53-4.25,8.28-3.67,12.82L302.35,168.19z"/>
	<g>
		<path class="st1" d="M211.55,219.19c3.37,1.6,5.94,3.56,7.7,5.88c1.77,2.32,2.7,4.46,2.81,6.45c0.05,0.46-0.11,0.85-0.49,1.18
			c-0.38,0.33-0.81,0.5-1.3,0.5h-3.34c-1.25,0-2.04-0.28-2.36-0.84c-1.58-2.85-3.46-5.01-5.67-6.49c-2.2-1.48-5.31-2.21-9.33-2.21
			c-4.57,0-8.26,1.21-11.09,3.62c-2.83,2.42-4.32,5.89-4.48,10.42c-0.05,1.53-0.08,3.64-0.08,6.33c0,2.7,0.03,4.81,0.08,6.33
			c0.16,4.78,1.64,8.39,4.44,10.84c2.8,2.44,6.51,3.66,11.13,3.66c4.73,0,8.5-1.16,11.33-3.47c2.83-2.31,4.24-5.96,4.24-10.95v-2.14
			H203.4c-0.6,0-1.11-0.2-1.55-0.61c-0.44-0.41-0.65-0.89-0.65-1.45v-2.75c0-0.56,0.22-1.04,0.65-1.45
			c0.43-0.41,0.95-0.61,1.55-0.61h17.28c0.6,0,1.11,0.2,1.55,0.61c0.43,0.41,0.65,0.89,0.65,1.45v7.25c0,4.07-0.92,7.7-2.77,10.87
			c-1.85,3.18-4.52,5.66-8.03,7.44c-3.51,1.78-7.68,2.67-12.51,2.67c-7.5,0-13.21-1.95-17.12-5.84c-3.91-3.89-5.98-8.94-6.2-15.15
			c-0.05-1.53-0.08-3.76-0.08-6.72c0-2.95,0.03-5.19,0.08-6.72c0.16-3.92,1.1-7.41,2.81-10.49c1.71-3.08,4.29-5.52,7.74-7.33
			c3.45-1.81,7.7-2.71,12.76-2.71C204.19,216.79,208.18,217.59,211.55,219.19z"/>
		<path class="st1" d="M234.13,219.61c0-0.56,0.22-1.04,0.65-1.45c0.43-0.41,0.95-0.61,1.55-0.61h21.85c4.29,0,7.77,0.78,10.43,2.33
			c2.66,1.55,4.56,3.42,5.71,5.61c1.14,2.19,1.71,4.32,1.71,6.41c0,2.85-0.73,5.15-2.2,6.91c-1.47,1.76-2.91,3.04-4.32,3.85
			c2.28,1.42,4.14,3.24,5.58,5.46c1.44,2.21,2.16,4.67,2.16,7.36c0,2.65-0.69,5.15-2.08,7.52s-3.44,4.29-6.15,5.76
			c-2.72,1.48-5.95,2.21-9.7,2.21h-22.99c-0.6,0-1.11-0.2-1.55-0.61c-0.44-0.41-0.65-0.89-0.65-1.45V219.61z M241.87,239.84h15.49
			c3.59,0,6.3-0.66,8.15-1.98c1.85-1.32,2.77-3.23,2.77-5.72c0-2.49-0.92-4.4-2.77-5.72c-1.85-1.32-4.57-1.98-8.15-1.98h-15.49
			V239.84z M241.87,264.1h16.63c3.48,0,6.18-0.83,8.11-2.48c1.93-1.65,2.89-3.7,2.89-6.14c0-2.49-0.92-4.58-2.77-6.26
			c-1.85-1.68-4.59-2.52-8.23-2.52h-16.63V264.1z"/>
		<path class="st1" d="M325.43,264.71c0.43,0.41,0.65,0.89,0.65,1.45v2.75c0,0.56-0.22,1.04-0.65,1.45
			c-0.44,0.41-0.95,0.61-1.55,0.61H290.7c-0.6,0-1.11-0.2-1.55-0.61c-0.44-0.41-0.65-0.89-0.65-1.45v-49.3
			c0-0.56,0.22-1.04,0.65-1.45c0.43-0.41,0.95-0.61,1.55-0.61h3.34c0.6,0,1.11,0.2,1.55,0.61c0.43,0.41,0.65,0.89,0.65,1.45v44.49
			h27.63C324.48,264.1,324.99,264.31,325.43,264.71z"/>
		<path class="st1" d="M372.38,231.79c-0.38,0.33-0.82,0.5-1.3,0.5h-3.34c-0.65,0-1.14-0.11-1.47-0.34s-0.68-0.67-1.06-1.34
			c-0.87-1.58-2.38-3.13-4.52-4.66c-2.15-1.53-4.99-2.29-8.52-2.29c-3.26,0-6.02,0.69-8.27,2.06c-2.26,1.37-3.38,3.33-3.38,5.88
			c0,1.73,0.56,3.14,1.67,4.24c1.11,1.09,2.8,2.04,5.05,2.82c2.25,0.79,5.67,1.74,10.23,2.86c6.2,1.53,10.58,3.4,13.17,5.61
			c2.58,2.21,3.87,5.23,3.87,9.04c0,3.05-0.91,5.75-2.73,8.09c-1.82,2.34-4.39,4.17-7.7,5.49c-3.32,1.32-7.15,1.98-11.49,1.98
			c-4.02,0-7.69-0.71-11-2.14c-3.32-1.42-5.92-3.24-7.83-5.46s-2.91-4.41-3.02-6.6c0-0.46,0.18-0.85,0.53-1.18
			c0.35-0.33,0.77-0.5,1.26-0.5h3.34c0.6,0,1.09,0.11,1.47,0.34c0.38,0.23,0.73,0.67,1.06,1.34c0.87,1.83,2.46,3.51,4.77,5.04
			c2.31,1.53,5.45,2.29,9.42,2.29c3.97,0,7.32-0.8,10.07-2.4c2.74-1.6,4.12-3.7,4.12-6.3c0-1.68-0.72-3.09-2.16-4.24
			c-1.44-1.14-3.41-2.11-5.91-2.9c-2.5-0.79-6.17-1.77-11-2.94c-5.27-1.27-9.08-3.12-11.41-5.53c-2.34-2.42-3.5-5.41-3.5-8.97
			c0-2.65,0.73-5.09,2.2-7.33c1.47-2.24,3.67-4.04,6.6-5.42s6.47-2.06,10.6-2.06s7.74,0.75,10.84,2.25c3.1,1.5,5.49,3.35,7.17,5.53
			c1.68,2.19,2.58,4.2,2.69,6.03C372.92,231.06,372.76,231.46,372.38,231.79z"/>
	</g>
</g>
</svg>
